<svg id="Capa_1" enable-background="new 0 0 512 512" height="512" viewBox="0 0 512 512" width="512" xmlns="http://www.w3.org/2000/svg"><g><g><path d="m323.5 91-67.5 105-67.5-105h37.5v-75h60v75z" fill="#ff4b87"/></g><g><path d="m291.147 166.002h169.706v29.997h-169.706z" fill="#3d4566" transform="matrix(.707 -.707 .707 .707 -17.859 318.886)"/></g><path d="m491.8 271-64.8 194.099c-6 18.6-23.1 30.901-42.599 30.901h-256.802c-19.499 0-36.599-12.301-42.599-30.901l-64.8-194.099z" fill="#ffdf40"/><path d="m491.8 271-64.8 194.099c-6 18.6-23.1 30.901-42.599 30.901h-128.401v-225z" fill="#ffbe40"/><g><path d="m121.002 96.147h29.997v169.706h-29.997z" fill="#4d5e80" transform="matrix(.707 -.707 .707 .707 -88.153 149.18)"/></g><g><g><g><path d="m512 286v31.199l-21.4-8.101c-7.2-2.699-13.801-6.299-20.099-10.499-21.601-15-50.402-13.2-72.301 1.199-33.6 22.202-77.999 21-110.4-3.3-9.3-5.7-20.4-8.399-31.8-8.101-12.299.3-25.201 3.9-36 11.102-31.8 21.299-72.9 21.599-105 .899-22.5-14.099-51.599-17.1-73.5-1.8-6.299 4.2-12.9 7.8-20.099 10.499l-21.401 8.102v-31.199c0-33.001 28.001-60 61-60h390c32.999 0 61 26.999 61 60z" fill="#edf3f9"/></g></g></g><path d="m512 286v31.199l-21.4-8.101c-7.2-2.699-13.801-6.299-20.099-10.499-21.601-15-50.402-13.2-72.301 1.199-33.6 22.202-77.999 21-110.4-3.3-9.3-5.7-20.4-8.399-31.8-8.101v-62.397h195c32.999 0 61 26.999 61 60z" fill="#d8e2f0"/><path d="m323.5 91-67.5 105v-180h30v75z" fill="#e62e6b"/></g></svg>