<svg height="512pt" viewBox="0 -37 512.001 512" width="512pt" xmlns="http://www.w3.org/2000/svg"><path d="m471.824219 223.550781v-28.847656c0-14.222656-11.53125-25.753906-25.757813-25.753906h-380.132812c-14.226563 0-25.757813 11.53125-25.757813 25.753906v28.847656zm0 0" fill="#758e29"/><path d="m489.335938 269.90625-3.789063 20.605469-20.902344 113.566406c-3.597656 19.554687-20.648437 33.75-40.527343 33.75h-336.230469c-19.882813 0-36.933594-14.195313-40.527344-33.75l-20.90625-113.566406-3.789063-20.605469zm0 0" fill="#ffd169"/><path d="m268.878906 0h-25.757812c-8.53125 0-15.453125 6.917969-15.453125 15.453125v197.796875h56.660156v-197.796875c0-8.535156-6.917969-15.453125-15.449219-15.453125zm0 0" fill="#ffd169"/><path d="m346.140625 51.507812h-5.152344c-31.289062 0-56.660156 25.371094-56.660156 56.660157v105.078125h118.472656v-105.078125c0-31.292969-25.367187-56.660157-56.660156-56.660157zm0 0" fill="#916643"/><path d="m130.65625 92.195312-3.320312-41.003906c-.335938-4.144531-5.191407-6.203125-8.402344-3.566406l-40.398438 33.175781c-3.050781 2.507813-2.265625 7.371094 1.417969 8.789063l36.308594 13.980468 15.601562 4.085938zm0 0" fill="#f94646"/><path d="m227.589844 93.59375v129.957031l-125.160156-10.304687c-8.230469-13.441406-12.980469-29.253906-12.980469-46.179688 0-48.9375 39.671875-88.597656 88.597656-88.597656 8.652344 0 17 1.234375 24.898437 3.542969 8.871094 2.597656 17.164063 6.53125 24.644532 11.582031zm0 0" fill="#f9b4b4"/><path d="m227.589844 93.59375v130.441406h-24.644532v-142.023437c8.871094 2.597656 17.164063 6.53125 24.644532 11.582031zm0 0" fill="#f79494"/><path d="m351.292969 146.285156h51.507812v-30.90625h-51.507812c-8.535157 0-15.453125 6.917969-15.453125 15.453125 0 8.535157 6.917968 15.453125 15.453125 15.453125zm0 0" fill="#774320"/><path d="m351.292969 213.246094h51.507812v-30.902344h-51.507812c-8.535157 0-15.453125 6.917969-15.453125 15.453125 0 8.53125 6.917968 15.449219 15.453125 15.449219zm0 0" fill="#774320"/><path d="m268.878906 0h-25.757812c-8.53125 0-15.453125 6.917969-15.453125 15.453125v208.097656h56.660156v-208.097656c0-8.535156-6.917969-15.453125-15.449219-15.453125zm0 0" fill="#ffb600"/><path d="m471.824219 194.703125v28.847656h-20.605469v-28.847656c0-14.226563-11.527344-25.753906-25.753906-25.753906h20.601562c14.230469 0 25.757813 11.527343 25.757813 25.753906zm0 0" fill="#637710"/><path d="m402.800781 108.167969v105.078125h-20.605469v-105.078125c0-28.679688-21.292968-52.375-48.933593-56.132813 2.523437-.351562 5.109375-.527344 7.726562-.527344h5.152344c31.296875 0 56.660156 25.363282 56.660156 56.660157zm0 0" fill="#845939"/><path d="m382.195312 182.34375h20.605469v30.902344h-20.605469zm0 0" fill="#513321"/><path d="m382.195312 115.378906h20.605469v30.90625h-20.605469zm0 0" fill="#513321"/><path d="m489.335938 269.90625-233.335938-14.9375-233.335938 14.9375 3.789063 20.605469h438.488281l-20.902344 113.566406c-3.59375 19.554687-20.644531 33.75-40.527343 33.75h20.605469c19.878906 0 36.929687-14.195313 40.527343-33.75zm0 0" fill="#ffb93e"/><path d="m496.546875 269.90625h-481.09375c-8.535156 0-15.453125-6.917969-15.453125-15.453125v-25.753906c0-8.535157 6.917969-15.453125 15.453125-15.453125h481.09375c8.535156 0 15.453125 6.917968 15.453125 15.453125v25.753906c0 8.535156-6.917969 15.453125-15.453125 15.453125zm0 0" fill="#dd9300"/><path d="m512 228.699219v25.757812c0 8.527344-6.921875 15.453125-15.453125 15.453125h-20.605469c8.53125 0 15.453125-6.925781 15.453125-15.453125v-25.757812c0-8.527344-6.921875-15.453125-15.453125-15.453125h20.605469c8.53125 0 15.453125 6.925781 15.453125 15.453125zm0 0" fill="#d68003"/></svg>