<?xml version="1.0"?>
<svg xmlns="http://www.w3.org/2000/svg" xmlns:xlink="http://www.w3.org/1999/xlink" xmlns:svgjs="http://svgjs.com/svgjs" version="1.1" width="512" height="512" x="0" y="0" viewBox="0 0 512 512" style="enable-background:new 0 0 512 512" xml:space="preserve" class=""><g>
<g xmlns="http://www.w3.org/2000/svg">
	<g>
		<path d="M330.171,304.892c-2.914-7.204-7.204-13.649-12.729-19.174c-5.525-5.525-11.97-9.805-19.164-12.729    c-6.952-2.823-14.277-4.25-21.785-4.25h-0.081c-6.344,0-12.608,1.032-18.608,3.066c-6.152,2.085-11.859,5.171-16.979,9.158    c-5.12-3.987-10.827-7.073-16.979-9.158c-6-2.034-12.264-3.066-18.608-3.066h-0.081c-7.508,0-14.834,1.427-21.786,4.25    c-7.194,2.924-13.64,7.204-19.164,12.729c-5.525,5.525-9.815,11.97-12.729,19.175c-2.823,6.961-4.26,14.297-4.249,21.816    c0,6.293,1.012,12.497,3.005,18.446c2.044,6.112,5.08,11.798,9.016,16.908c1.447,1.872,3.643,2.955,6.01,2.955    c1.69,0,3.289-0.546,4.634-1.578c3.309-2.56,3.926-7.336,1.376-10.645c-2.904-3.764-5.14-7.953-6.648-12.456    c-1.467-4.391-2.216-8.975-2.216-13.629c0.01-11.434,4.462-22.18,12.536-30.265c8.075-8.075,18.821-12.527,30.255-12.527    c11.434,0,22.18,4.452,30.264,12.527c1.437,1.437,3.339,2.226,5.363,2.226s3.936-0.79,5.363-2.226    c8.085-8.075,18.831-12.527,30.265-12.527c11.434,0,22.18,4.452,30.254,12.527c8.075,8.085,12.527,18.831,12.537,30.265    c-0.01,10.058-3.552,19.822-9.987,27.482c-0.799,0.951-1.649,1.882-2.55,2.772l-65.882,65.892l-49.045-49.046    c-1.437-1.437-3.339-2.226-5.363-2.226c-2.034,0-3.936,0.789-5.373,2.226c-1.427,1.427-2.216,3.339-2.216,5.363    c0,2.024,0.779,3.926,2.216,5.353c0,0.01,0,0.01,0,0.01l54.418,54.418c1.407,1.406,3.36,2.216,5.363,2.216s3.956-0.81,5.363-2.216    l71.255-71.256c1.184-1.184,2.337-2.438,3.43-3.744c8.743-10.402,13.549-23.627,13.549-37.246    C334.421,319.19,332.994,311.854,330.171,304.892z" fill="#c1c1c1" data-original="#000000" style="" class=""/>
	</g>
</g>
<g xmlns="http://www.w3.org/2000/svg">
	<g>
		<path d="M465.953,473.807c-0.002-0.068,0.002-0.134-0.002-0.202L445.72,129.574c-0.002-0.045-0.011-0.089-0.015-0.134    c-0.004-0.057-0.004-0.114-0.01-0.171c-0.008-0.085-0.025-0.168-0.036-0.253c-0.014-0.111-0.029-0.221-0.048-0.33    c-0.009-0.051-0.015-0.102-0.026-0.152c-0.017-0.088-0.041-0.172-0.062-0.259c-0.026-0.109-0.05-0.218-0.081-0.325    c-0.013-0.046-0.025-0.091-0.039-0.137c-0.025-0.082-0.055-0.161-0.082-0.241c-0.038-0.112-0.075-0.223-0.118-0.333    c-0.017-0.043-0.033-0.086-0.051-0.129c-0.029-0.07-0.063-0.137-0.094-0.205c-0.053-0.118-0.105-0.236-0.164-0.35    c-0.02-0.039-0.04-0.078-0.061-0.117c-0.03-0.055-0.063-0.108-0.094-0.162c-0.073-0.128-0.146-0.255-0.225-0.378    c-0.021-0.032-0.042-0.064-0.063-0.096c-0.027-0.041-0.057-0.078-0.085-0.118c-0.098-0.141-0.198-0.279-0.304-0.412    c-0.018-0.023-0.036-0.045-0.054-0.068c-0.021-0.026-0.045-0.049-0.067-0.075c-0.128-0.153-0.262-0.301-0.402-0.443    c-0.01-0.011-0.019-0.023-0.03-0.034c-0.016-0.016-0.034-0.029-0.05-0.045c-0.152-0.15-0.31-0.294-0.474-0.431    c-0.009-0.007-0.017-0.014-0.026-0.022c-0.023-0.019-0.047-0.038-0.071-0.056c-0.161-0.13-0.326-0.252-0.497-0.368    c-0.004-0.003-0.009-0.006-0.013-0.009c-0.007-0.005-0.015-0.01-0.023-0.015c-0.025-0.017-0.05-0.034-0.075-0.05    c-0.187-0.122-0.379-0.236-0.578-0.341c-0.019-0.01-0.039-0.02-0.058-0.031c-0.204-0.106-0.412-0.203-0.625-0.29    c-0.013-0.005-0.025-0.011-0.038-0.016c-0.215-0.087-0.434-0.164-0.658-0.23c-0.012-0.003-0.025-0.007-0.036-0.011    c-0.196-0.057-0.395-0.107-0.597-0.149c-0.015-0.003-0.03-0.005-0.044-0.008c-0.004-0.001-0.009-0.002-0.013-0.003    c-0.027-0.005-0.054-0.011-0.082-0.016c-0.191-0.036-0.384-0.064-0.579-0.085c-0.023-0.002-0.045-0.006-0.068-0.008    c-0.046-0.005-0.093-0.006-0.14-0.01c-0.163-0.013-0.325-0.022-0.49-0.024c-0.051-0.001-0.102-0.005-0.154-0.005H334.424V63.241    C334.424,28.37,306.054,0,271.183,0c-25.762,0-47.96,15.492-57.808,37.642c-21.162,10.238-35.792,31.925-35.792,56.967v27.825    h-73.354c-0.251,0-0.502,0.013-0.752,0.038c-0.11,0.011-0.218,0.032-0.327,0.047c-0.136,0.019-0.272,0.036-0.407,0.062    c-0.126,0.025-0.25,0.06-0.373,0.091c-0.116,0.029-0.232,0.055-0.346,0.089c-0.123,0.037-0.242,0.083-0.362,0.126    c-0.113,0.04-0.227,0.078-0.339,0.124c-0.113,0.047-0.221,0.102-0.331,0.154c-0.114,0.054-0.229,0.105-0.341,0.165    c-0.107,0.057-0.209,0.123-0.313,0.185c-0.108,0.065-0.218,0.125-0.323,0.196c-0.117,0.078-0.226,0.164-0.338,0.248    c-0.086,0.065-0.175,0.125-0.259,0.194c-0.194,0.159-0.381,0.327-0.558,0.505l-30.356,30.355c-0.048,0.048-0.088,0.1-0.135,0.149    c-0.101,0.106-0.2,0.214-0.294,0.325c-0.071,0.083-0.137,0.168-0.204,0.254c-0.082,0.106-0.161,0.213-0.237,0.323    c-0.066,0.095-0.129,0.191-0.191,0.288c-0.067,0.107-0.13,0.215-0.192,0.326c-0.058,0.103-0.115,0.208-0.167,0.313    c-0.055,0.111-0.107,0.223-0.157,0.337c-0.047,0.108-0.094,0.216-0.136,0.327c-0.045,0.116-0.084,0.234-0.124,0.353    c-0.037,0.112-0.074,0.224-0.105,0.338c-0.033,0.119-0.061,0.239-0.088,0.36c-0.027,0.119-0.053,0.237-0.074,0.356    c-0.02,0.117-0.036,0.236-0.051,0.355c-0.016,0.126-0.031,0.253-0.041,0.379c-0.003,0.046-0.012,0.092-0.015,0.138L46.054,503.965    c-0.123,2.086,0.62,4.131,2.054,5.652S51.539,512,53.629,512h374.394c0.249,0,0.499-0.013,0.748-0.038    c0.115-0.011,0.225-0.033,0.338-0.049c0.132-0.019,0.265-0.035,0.397-0.061c0.127-0.025,0.25-0.06,0.375-0.091    c0.115-0.029,0.23-0.054,0.344-0.089c0.123-0.037,0.241-0.083,0.36-0.126c0.114-0.041,0.229-0.078,0.341-0.125    c0.112-0.046,0.219-0.101,0.328-0.153c0.116-0.054,0.232-0.105,0.345-0.166c0.104-0.055,0.203-0.119,0.303-0.179    c0.112-0.067,0.225-0.13,0.335-0.203c0.108-0.073,0.21-0.154,0.315-0.231c0.094-0.07,0.191-0.136,0.282-0.211    c0.174-0.142,0.339-0.294,0.5-0.451c0.018-0.018,0.038-0.033,0.056-0.051l30.351-30.359c0.05-0.05,0.092-0.105,0.141-0.156    c0.092-0.097,0.182-0.196,0.269-0.297c0.081-0.094,0.158-0.19,0.233-0.287c0.074-0.096,0.146-0.193,0.215-0.293    c0.075-0.108,0.147-0.217,0.216-0.327c0.061-0.097,0.119-0.196,0.175-0.296c0.064-0.115,0.126-0.23,0.184-0.348    c0.052-0.105,0.101-0.211,0.148-0.319c0.05-0.115,0.099-0.23,0.143-0.347c0.045-0.116,0.085-0.234,0.124-0.353    c0.037-0.113,0.071-0.226,0.102-0.34c0.034-0.125,0.064-0.251,0.092-0.378c0.025-0.114,0.047-0.228,0.067-0.343    c0.022-0.126,0.04-0.253,0.055-0.382c0.015-0.123,0.026-0.245,0.035-0.369c0.008-0.12,0.014-0.24,0.017-0.361    C465.96,474.083,465.958,473.945,465.953,473.807z M419.82,137.612l-15.178,15.179H304.065v-15.179H419.82z M271.183,15.178    c26.502,0,48.063,21.561,48.063,48.063v59.193h-15.181V94.609c0-34.871-28.37-63.241-63.241-63.241    c-1.961,0-3.898,0.103-5.814,0.278C243.827,21.564,256.77,15.178,271.183,15.178z M223.12,63.241c0-4.899,0.741-9.627,2.11-14.084    c4.894-1.684,10.137-2.612,15.595-2.612c26.502,0,48.063,21.561,48.063,48.063v27.825H223.12V63.241z M288.888,137.612v15.179    h-96.126v-15.179H288.888z M192.761,94.609c0-13.85,5.896-26.343,15.302-35.122c-0.073,1.243-0.121,2.493-0.121,3.754v59.193    h-15.181V94.609z M107.369,137.612h70.213v15.179H92.19L107.369,137.612z M424.88,496.822H61.678l19.346-328.854h96.559v43.004    c0,4.191,3.398,7.589,7.589,7.589c4.191,0,7.589-3.398,7.589-7.589v-43.004h96.126v43.004c0,4.191,3.398,7.589,7.589,7.589    c4.191,0,7.589-3.398,7.589-7.589v-43.004h96.564l18.034,306.533c0.246,4.184,3.831,7.369,8.021,7.13    c4.184-0.246,7.377-3.838,7.13-8.022l-18.253-310.274l15.999-15.998l19.039,323.759L424.88,496.822z" fill="#c1c1c1" data-original="#000000" style="" class=""/>
	</g>
</g>
<g xmlns="http://www.w3.org/2000/svg">
</g>
<g xmlns="http://www.w3.org/2000/svg">
</g>
<g xmlns="http://www.w3.org/2000/svg">
</g>
<g xmlns="http://www.w3.org/2000/svg">
</g>
<g xmlns="http://www.w3.org/2000/svg">
</g>
<g xmlns="http://www.w3.org/2000/svg">
</g>
<g xmlns="http://www.w3.org/2000/svg">
</g>
<g xmlns="http://www.w3.org/2000/svg">
</g>
<g xmlns="http://www.w3.org/2000/svg">
</g>
<g xmlns="http://www.w3.org/2000/svg">
</g>
<g xmlns="http://www.w3.org/2000/svg">
</g>
<g xmlns="http://www.w3.org/2000/svg">
</g>
<g xmlns="http://www.w3.org/2000/svg">
</g>
<g xmlns="http://www.w3.org/2000/svg">
</g>
<g xmlns="http://www.w3.org/2000/svg">
</g>
</g></svg>
