<svg id="Capa_1" enable-background="new 0 0 501.472 501.472" height="512" viewBox="0 0 501.472 501.472" width="512" xmlns="http://www.w3.org/2000/svg"><g><path d="m172.262 254.472c-48.601 0-88-39.399-88-88s39.399-88 88-88 88 39.399 88 88" fill="#fed843"/><path d="m275.262 166.472c0-56.794-46.206-103-103-103s-103 46.206-103 103 46.206 103 103 103v-30c-19.872 0-37.906-7.991-51.083-20.917l61.899-41.267 41.266-61.899c12.926 13.176 20.917 31.21 20.917 51.083zm-170.747 27.137c-8.726-21.704-6.636-46.735 6.652-67.021l37.551 37.552zm65.416-50.682-37.551-37.551c20.321-13.311 45.354-15.362 67.02-6.652z" fill="#fabe2c"/><path d="m312.129 312.812-29.633-4.68 44.463-281.58 97.357-26.552 7.893 28.943-78.643 21.449z" fill="#e62e6b"/><path d="m272.396 312.812-41.437-262.42-78.643-21.449 7.893-28.943 97.357 26.552 44.463 281.58z" fill="#f66"/><path d="m428.832 151.472-35 350h-203.14l-35-350z" fill="#ecf9fd"/><path d="m428.832 151.472-35 350h-101.57v-350z" fill="#d9f3fc"/><path d="m412.932 310.472-19.1 191h-203.14l-19.1-191z" fill="#5c7099"/><path d="m412.932 310.472-19.1 191h-101.57v-191z" fill="#404a80"/><path d="m240.949 362.785h32v30h-32z" fill="#ecf9fd" transform="matrix(.707 -.707 .707 .707 -191.876 292.341)"/><path d="m313.872 425.082c-1.172 1.171-21.016 21.005-22.63 22.62l-21.21-21.211 22.23-22.239c.563-.563-1.977-2.759 21.61 20.83z" fill="#ecf9fd"/><g fill="#d9f3fc"><path d="m313.872 425.082-21.61 21.6v-42.43c.563-.563-1.977-2.759 21.61 20.83z"/><path d="m312.949 369.412h32v30h-32z" transform="matrix(.707 -.707 .707 .707 -175.475 345.205)"/></g></g></svg>