<svg id="Capa_1" enable-background="new 0 0 510 510" height="512" viewBox="0 0 510 510" width="512" xmlns="http://www.w3.org/2000/svg"><g><path d="m80 297.5c-44.112 0-80 35.888-80 80v35l47.5 36.929 47.5-36.929v-115z" fill="#ffdd70"/><path d="m479.473 337.5h-59.473v-150.527h59.473c16.833 0 30.527 13.694 30.527 30.527v89.473c0 16.833-13.694 30.527-30.527 30.527zm-29.473-30h29.473c.291 0 .527-.236.527-.527v-89.473c0-.291-.236-.527-.527-.527h-29.473z" fill="#283d66"/><path d="m210 142.5v269.992l172.846.008c37.029 0 67.154-30.125 67.154-67.154v-202.846z" fill="#9cf"/><path d="m330 142.5v269.998l52.846.002c37.029 0 67.154-30.125 67.154-67.154v-202.846z" fill="#80aaff"/><path d="m310 297.5h-15v115l50.187 19.522 44.813-19.522v-35c0-44.112-35.888-80-80-80z" fill="#f8c045"/><path d="m241 67.5h30v45h-30z" fill="#e6f2ff"/><path d="m391 67.5h30v45h-30z" fill="#cce6ff"/><path d="m316 37.5h30v75h-30z" fill="#e6f2ff"/><path d="m330 37.5h16v75h-16z" fill="#cce6ff"/><path d="m104.143 267.5c-21.583 0-39.143 17.56-39.143 39.143v105.857l50 39.698 50-39.698v-145z" fill="#f8c045"/><path d="m285.857 267.5h-60.857v145l50 22.5 50-22.5v-105.857c0-21.583-17.56-39.143-39.143-39.143z" fill="#ff9e22"/><path d="m212.791 232.5h-37.791c-22.804 0-40 18.148-40 42.214v137.786l58.898 39.698 58.898-39.698v-139.994c.001-22.06-17.946-40.006-40.005-40.006z" fill="#ffdd70"/><path d="m212.791 232.5h-18.893v180l29.449 19.522 29.449-19.522v-139.994c.001-22.06-17.946-40.006-40.005-40.006z" fill="#f8c045"/><path d="m0 412.5h510v60h-510z" fill="#995c5c"/><path d="m252.797 412.5v60h257.203v-60h-166.237z" fill="#804040"/></g></svg>