<?xml version="1.0" encoding="iso-8859-1"?>
<!-- Generator: Adobe Illustrator 21.0.0, SVG Export Plug-In . SVG Version: 6.00 Build 0)  -->
<svg version="1.1" id="Capa_1" xmlns="http://www.w3.org/2000/svg" xmlns:xlink="http://www.w3.org/1999/xlink" x="0px" y="0px"
	 viewBox="0 0 512 512" style="enable-background:new 0 0 512 512;" xml:space="preserve">
<path style="fill:#81C6F6;" d="M256,0c-4.204,0-7.611,3.408-7.611,7.611v139.037h15.223V7.611C263.612,3.408,260.205,0,256,0z"/>
<polygon style="fill:#FFCE53;" points="309.28,237.986 202.72,298.878 339.726,298.878 339.726,237.986 "/>
<g>
	<rect x="172.274" y="237.986" style="fill:#FFE373;" width="137.007" height="60.892"/>
	<polygon style="fill:#FFE373;" points="386.41,512 416.856,512 447.302,466.331 447.302,451.108 386.41,451.108 	"/>
</g>
<g>
	<polygon style="fill:#FFEFB0;" points="64.698,466.331 95.144,512 386.41,512 416.856,466.331 416.856,451.108 64.698,451.108 	"/>
	<path style="fill:#FFEFB0;" d="M492.971,435.885h-30.446v30.446h30.446c8.407,0,15.223-6.816,15.223-15.223
		C508.194,442.701,501.378,435.885,492.971,435.885z"/>
</g>
<path style="fill:#FFF5CE;" d="M477.748,451.108c0-8.407-6.816-15.223-15.223-15.223H19.029c-8.407,0-15.223,6.816-15.223,15.223
	c0,8.407,6.816,15.223,15.223,15.223h443.497C470.932,466.331,477.748,459.515,477.748,451.108z"/>
<path style="fill:#FF6529;" d="M339.726,268.432H309.28v137.007h30.446c37.833,0,68.503-30.67,68.503-68.503
	S377.56,268.432,339.726,268.432z"/>
<path style="fill:#FF812D;" d="M377.784,336.936c0-37.833-30.67-68.503-68.503-68.503H172.274c-37.833,0-68.503,30.67-68.503,68.503
	s30.67,68.503,68.503,68.503H309.28C347.114,405.439,377.784,374.769,377.784,336.936z"/>
<g>
	<circle style="fill:#FF6529;" cx="278.835" cy="374.993" r="7.611"/>
	<circle style="fill:#FF6529;" cx="324.503" cy="298.878" r="7.611"/>
	<circle style="fill:#FF6529;" cx="347.338" cy="336.936" r="7.611"/>
	<circle style="fill:#FF6529;" cx="172.274" cy="298.878" r="7.611"/>
</g>
<path style="fill:#DE2318;" d="M256,116.202v121.784c33.63,0,60.892-27.262,60.892-60.892S289.63,116.202,256,116.202z"/>
<path style="fill:#FF2E23;" d="M286.446,177.094c0-33.63-13.631-60.892-30.446-60.892c-33.63,0-60.892,27.262-60.892,60.892
	S222.37,237.986,256,237.986C272.815,237.986,286.446,210.724,286.446,177.094z"/>
<g>
</g>
<g>
</g>
<g>
</g>
<g>
</g>
<g>
</g>
<g>
</g>
<g>
</g>
<g>
</g>
<g>
</g>
<g>
</g>
<g>
</g>
<g>
</g>
<g>
</g>
<g>
</g>
<g>
</g>
</svg>
